<?xml version="1.0" standalone="no"?>
<!DOCTYPE svg PUBLIC "-//W3C//DTD SVG 20010904//EN"
 "http://www.w3.org/TR/2001/REC-SVG-20010904/DTD/svg10.dtd">
<svg version="1.0" xmlns="http://www.w3.org/2000/svg"
 width="228.000000pt" height="228.000000pt" viewBox="0 0 228.000000 228.000000"
 preserveAspectRatio="xMidYMid meet">
<metadata>
Created by potrace 1.14, written by Peter Selinger 2001-2017
</metadata>
<g transform="translate(0.000000,228.000000) scale(0.100000,-0.100000)"
fill="#000000" stroke="none">
<path d="M1126 2259 c3 -5 -13 -7 -36 -5 -22 2 -40 0 -40 -3 0 -4 -11 -8 -25
-9 -14 -1 -44 -14 -68 -29 -23 -15 -45 -26 -49 -25 -3 1 -12 -6 -20 -15 -9
-12 -9 -15 0 -9 6 4 12 2 12 -3 0 -6 -8 -11 -18 -11 -29 0 -92 -103 -107 -175
-4 -16 -8 -193 -11 -393 -3 -274 -1 -369 8 -385 7 -12 13 -47 14 -77 5 -184
16 -539 19 -622 7 -220 95 -353 268 -403 143 -41 247 -12 350 99 77 82 99 156
96 321 -6 369 -5 671 4 682 10 14 3 725 -8 783 -3 19 -12 40 -19 45 -7 6 -11
15 -9 20 2 6 -4 20 -13 30 -8 11 -12 13 -8 5 4 -9 3 -12 -2 -7 -5 5 -9 14 -9
21 0 13 -50 76 -60 76 -3 0 -3 -5 1 -12 4 -7 3 -8 -4 -4 -6 4 -8 14 -5 23 5
13 2 15 -11 10 -11 -4 -15 -3 -10 4 4 8 -1 9 -17 4 -19 -5 -21 -4 -9 4 13 9
12 12 -5 17 -11 3 -24 4 -29 4 -5 -1 -12 3 -16 9 -7 12 -28 18 -91 28 l-36 5
3 -36 c3 -32 1 -35 -11 -22 -17 17 -20 30 -5 21 6 -3 10 1 10 10 0 9 -4 13
-10 10 -5 -3 -7 0 -4 8 3 8 -1 14 -10 14 -8 0 -13 -4 -10 -8z m-38 -39 c0 -16
-4 -30 -10 -30 -6 0 -8 3 -5 6 3 4 2 16 -4 27 -8 14 -8 18 0 13 6 -4 11 -2 11
3 0 26 7 8 8 -19z m137 20 c3 -5 1 -10 -4 -10 -6 0 -11 5 -11 10 0 6 2 10 4
10 3 0 8 -4 11 -10z m-165 -36 c0 -17 -16 -18 -26 -2 -5 7 -3 8 6 3 8 -5 11
-3 8 6 -3 8 -14 13 -24 11 -15 -2 -16 -1 -4 7 17 11 40 -3 40 -25z m70 25 c0
-5 -4 -7 -10 -4 -5 3 -10 1 -10 -6 0 -7 -3 -10 -6 -6 -8 7 4 27 17 27 5 0 9
-5 9 -11z m-142 -19 c-7 -11 -19 -20 -27 -20 -8 0 -4 8 10 20 30 25 32 25 17
0z m222 -1 c0 -4 -7 -6 -15 -3 -8 4 -15 10 -15 15 0 4 7 6 15 3 8 -4 15 -10
15 -15z m32 -14 c3 -13 1 -22 -3 -19 -9 5 -13 44 -5 44 2 0 6 -11 8 -25z
m-227 5 c-3 -5 -1 -10 4 -10 6 0 11 -5 11 -10 0 -6 -8 -5 -19 2 -19 12 -19 28
0 28 6 0 7 -4 4 -10z m109 -2 c-5 -8 -1 -9 12 -5 19 7 19 7 0 -8 -10 -8 -24
-12 -29 -8 -6 4 -8 0 -4 -10 3 -10 2 -17 -3 -17 -15 0 -12 21 7 42 18 20 28
24 17 6z m-187 -23 c-4 -8 -2 -17 3 -20 6 -4 10 -12 10 -18 0 -7 -7 -4 -15 6
-12 17 -11 47 2 47 3 0 3 -7 0 -15z m255 8 c-6 -2 -9 -10 -6 -15 4 -7 2 -8 -5
-4 -13 9 -5 26 12 25 9 0 8 -2 -1 -6z m-223 -33 c11 -24 11 -24 -3 -6 -9 11
-16 24 -16 30 0 12 5 7 19 -24z m21 15 c0 -8 -2 -15 -4 -15 -2 0 -6 7 -10 15
-3 8 -1 15 4 15 6 0 10 -7 10 -15z m80 0 c0 -8 -4 -15 -10 -15 -5 0 -7 7 -4
15 4 8 8 15 10 15 2 0 4 -7 4 -15z m94 -12 c3 -11 1 -25 -3 -32 -4 -6 -8 4 -8
24 0 37 5 41 11 8z m166 13 c0 -2 -7 -7 -16 -10 -8 -3 -12 -2 -9 4 6 10 25 14
25 6z m35 -5 c3 -5 2 -12 -3 -15 -5 -3 -9 1 -9 9 0 17 3 19 12 6z m-334 -24
c-10 -9 -11 -8 -5 6 3 10 9 15 12 12 3 -3 0 -11 -7 -18z m-101 -22 c0 -5 -5
-3 -10 5 -5 8 -10 20 -10 25 0 6 5 3 10 -5 5 -8 10 -19 10 -25z m280 21 c-7
-7 -13 -7 -20 0 -6 6 -3 10 10 10 13 0 16 -4 10 -10z m-120 -16 c0 -5 -2 -10
-4 -10 -3 0 -8 5 -11 10 -3 6 -1 10 4 10 6 0 11 -4 11 -10z m-161 -44 c-3 -3
-11 5 -18 17 -13 21 -12 21 5 5 10 -10 16 -20 13 -22z"/>
</g>
</svg>
